<svg
   xmlns="http://www.w3.org/2000/svg"
   width="24"
   height="24"
   viewBox="0 0 24 24"
   fill="#fff">
   <path
     d="m 9.214428,4.4962997 c 0.391056,0 0.7660748,0.1537153 1.042582,0.4273384 0.276506,0.2736213 0.431826,0.6447409 0.431826,1.0317011 0,0.3869602 -0.15532,0.7580706 -0.431826,1.0316928 C 9.9805028,7.2606542 9.605484,7.4143788 9.214428,7.4143788 8.823419,7.4143788 8.4484,7.2606542 8.171893,6.987032 7.895386,6.7134098 7.7400203,6.3422994 7.7400203,5.9553392 7.7400203,5.568379 7.895386,5.1972594 8.171893,4.9236381 8.4484,4.650015 8.823419,4.4962997 9.214428,4.4962997 Z m 1.806085,8.6501713 4.618051,2.813835 1.954624,-2.666932 4.411675,6.210326 H 11.536545 l 1.068952,-2.079133 2.216871,-0.0052 -4.9919005,-3.037929 c -8.347e-4,0 -0.00167,-1.87e-4 -0.00243,-5.61e-4 -4.679e-4,-2.34e-4 -9.008e-4,-5.61e-4 -0.00132,-9.09e-4 -9.751e-4,-9.92e-4 -0.00153,-0.0023 -0.00153,-0.0037 L 3.6116269,10.568139 6.0386093,7.3050852 10.282771,9.2487226 Z M 7.3188077,19.50356 H 9.0038451 L 8.9669559,15.892417 3.8697407,12.765934 1.9951365,19.47228 c 0.07372,0.02085 1.73348,0.03128 1.73348,0.03128 l 1.152142,-4.100944 2.4380492,1.558053 z"
     fill="white" />
</svg>
