<?xml version="1.0" encoding="UTF-8" standalone="no"?>
<svg
   xmlns="http://www.w3.org/2000/svg"
   height="24px"
   viewBox="0 0 24 24"
   width="24px"
   fill="none">
  <path
     d="M 10.905028,3.548498 C 10.511961,2.453526 9.4731428,1.676751 8.2565081,1.676751 c -1.5535495,0 -2.8076194,1.25407 -2.8076194,2.80762 0,1.54419 1.2540699,2.807619 2.8076194,2.807619 1.2166347,0 2.2554529,-0.786133 2.6485199,-1.871746 h 4.838464 V 7.29199 h 1.871746 V 5.420244 h 0.935873 V 3.548498 Z M 8.2565081,5.420244 c -0.5147303,0 -0.9358732,-0.421143 -0.9358732,-0.935873 0,-0.514731 0.4211429,-0.935873 0.9358732,-0.935873 0.5147301,0 0.935873,0.421142 0.935873,0.935873 0,0.51473 -0.4211429,0.935873 -0.935873,0.935873 z"
     fill="white" />
  <path
     d="m 11.627024,7.166633 c -0.362456,0 -0.654056,0.2916 -0.654056,0.654056 0,0.362456 0.2916,0.654057 0.654056,0.654057 h 0.700386 l 0.942932,1.744151 H 9.1988414 L 8.452127,9.183307 C 8.3294912,9.011617 8.1305497,8.910784 7.9207064,8.910784 H 6.3945745 c -0.3624562,0 -0.6540564,0.291599 -0.6540564,0.654056 0,0.362457 0.2916002,0.654057 0.6540564,0.654057 h 1.1909274 c 1.3523415,1.8743 2.7686011,3.72225 4.1035081,5.508299 l 2.595119,-3.636062 0.591376,1.092819 c -0.784868,0.64043 -1.286312,1.613338 -1.286312,2.703432 0,1.926742 1.561561,3.488301 3.488302,3.488301 1.926742,0 3.488301,-1.561559 3.488301,-3.488301 0,-1.92674 -1.561559,-3.4883 -3.488301,-3.4883 -0.367907,0 -0.722187,0.05727 -1.054667,0.163513 L 13.354824,7.624472 C 13.202211,7.341048 12.907885,7.166633 12.586307,7.166633 Z m 3.995196,7.404464 0.88025,1.626966 c 0.17169,0.318851 0.569574,0.436036 0.885702,0.264347 0.316127,-0.171689 0.436037,-0.569575 0.264347,-0.885702 l -0.880251,-1.626964 c 0.09811,-0.01635 0.201668,-0.02449 0.305227,-0.02449 1.084644,0 1.962169,0.877524 1.962169,1.962168 0,1.084644 -0.877525,1.96217 -1.962169,1.96217 -1.084643,0 -1.96217,-0.877526 -1.96217,-1.96217 0,-0.506894 0.190767,-0.967458 0.506895,-1.316288 z m -5.480449,-3.044088 h 2.954156 l -1.436818,2.095494 -1.520063,-2.095494 z"
     fill="white" />
  <path
     d="m 3.434204,15.887385 c 0,1.926742 1.5615593,3.488301 3.4883002,3.488301 1.9267419,0 3.4882998,-1.561559 3.4882998,-3.488301 0,-1.92674 -1.5032347,-3.477105 -3.5150869,-3.474907 -2.011852,0.0022 -3.4340413,1.635483 -3.4615131,3.474907 z m 2.0330249,-1.316288 c 0.490644,-0.505099 0.8002766,-0.573738 1.1500486,-0.621353 0.098109,-0.01635 0.2016675,-0.02449 0.3052266,-0.02449 1.0846442,0 1.9621694,0.877524 1.9621694,1.962169 0,1.084644 -0.8775251,1.96217 -1.9621694,1.96217 -1.0846431,0 -1.9621693,-0.877526 -1.9621693,-1.96217 0,-0.506894 0.1907665,-0.967458 0.5068941,-1.316288 z"
     fill="white" />
</svg>
