<?xml version="1.0" encoding="UTF-8" standalone="no"?>
<svg
   xmlns:dc="http://purl.org/dc/elements/1.1/"
   xmlns:cc="http://creativecommons.org/ns#"
   xmlns:rdf="http://www.w3.org/1999/02/22-rdf-syntax-ns#"
   xmlns:svg="http://www.w3.org/2000/svg"
   xmlns="http://www.w3.org/2000/svg"
   xmlns:sodipodi="http://sodipodi.sourceforge.net/DTD/sodipodi-0.dtd"
   xmlns:inkscape="http://www.inkscape.org/namespaces/inkscape"
   height="24px"
   viewBox="0 0 24 24"
   width="24px"
   fill="#000000"
   version="1.1"
   id="svg6"
   sodipodi:docname="lineare-referenz.svg"
   inkscape:version="0.92.3 (2405546, 2018-03-11)">
  <metadata
     id="metadata12">
    <rdf:RDF>
      <cc:Work
         rdf:about="">
        <dc:format>image/svg+xml</dc:format>
        <dc:type
           rdf:resource="http://purl.org/dc/dcmitype/StillImage" />
        <dc:title></dc:title>
      </cc:Work>
    </rdf:RDF>
  </metadata>
  <defs
     id="defs10">
    <inkscape:path-effect
       effect="spiro"
       id="path-effect839"
       is_visible="true" />
  </defs>
  <sodipodi:namedview
     pagecolor="#ffffff"
     bordercolor="#666666"
     borderopacity="1"
     objecttolerance="10"
     gridtolerance="10"
     guidetolerance="10"
     inkscape:pageopacity="0"
     inkscape:pageshadow="2"
     inkscape:window-width="3840"
     inkscape:window-height="2004"
     id="namedview8"
     showgrid="false"
     inkscape:zoom="27.812867"
     inkscape:cx="14.771904"
     inkscape:cy="8.755182"
     inkscape:window-x="-16"
     inkscape:window-y="-16"
     inkscape:window-maximized="1"
     inkscape:current-layer="svg6" />
  <path
     d="M0 0h24v24H0z"
     fill="none"
     id="path2" />
  <path
     d="m 20.75494,5.5954582 c -0.719377,0 -1.301198,0.5818217 -1.301198,1.3011987 0,0.9758991 1.301198,2.416512 1.301198,2.416512 0,0 1.301199,-1.4406129 1.301199,-2.416512 0,-0.719377 -0.581822,-1.3011987 -1.301199,-1.3011987 z m 0,1.7659126 c -0.256522,0 -0.464714,-0.2081918 -0.464714,-0.4647139 0,-0.256522 0.208192,-0.4647138 0.464714,-0.4647138 0.256522,0 0.464714,0.2081918 0.464714,0.4647138 0,0.2565221 -0.208192,0.4647139 -0.464714,0.4647139 z"
     id="path4"
     inkscape:connector-curvature="0"
     style="stroke-width:0.18588553" />
  <path
     d="m 3.2359119,11.714315 c -0.719377,0 -1.301198,0.581822 -1.301198,1.301199 0,0.975899 1.301198,2.416512 1.301198,2.416512 0,0 1.301199,-1.440613 1.301199,-2.416512 0,-0.719377 -0.581822,-1.301199 -1.301199,-1.301199 z m 0,1.765913 c -0.256522,0 -0.464714,-0.208192 -0.464714,-0.464714 0,-0.256522 0.208192,-0.464714 0.464714,-0.464714 0.256522,0 0.464714,0.208192 0.464714,0.464714 0,0.256522 -0.208192,0.464714 -0.464714,0.464714 z"
     id="path4-8"
     inkscape:connector-curvature="0"
     style="stroke-width:0.18588553" />
  <path
     style="fill:none;stroke:#000000;stroke-width:1px;stroke-linecap:round;stroke-linejoin:miter;stroke-opacity:1"
     d="m 3.7752306,15.971345 c 1.9081212,-1.228616 3.7351022,-2.583227 5.4650974,-4.052084 0.5469745,-0.46441 1.104831,-0.952096 1.787915,-1.171762 0.341543,-0.109833 0.710806,-0.147684 1.061606,-0.07249 0.3508,0.07519 0.681266,0.269146 0.889755,0.561116 0.215512,0.301805 0.287928,0.679614 0.356171,1.044133 0.06824,0.36452 0.14341,0.742324 0.362921,1.041233 0.150708,0.20522 0.363558,0.361476 0.598779,0.458939 0.235221,0.09746 0.492176,0.137514 0.746745,0.132749 0.509138,-0.0095 0.998793,-0.193779 1.458933,-0.411915 1.646164,-0.780389 3.063463,-2.036438 4.03606,-3.5768652"
     id="path837"
     inkscape:connector-curvature="0"
     inkscape:path-effect="#path-effect839"
     inkscape:original-d="m 3.7752306,15.971345 c 2.1103357,-1.100013 3.3567613,-2.954072 5.4650974,-4.052084 2.108335,-1.098013 2.781487,-0.204743 3.739276,-0.683138 0.957789,-0.478394 0.480395,1.389244 0.719092,2.085366 0.238697,0.696122 1.870638,0.118849 2.804457,0.179773 0.933819,0.06092 2.691707,-2.385577 4.03606,-3.5768652"
     sodipodi:nodetypes="cssscc" />
</svg>
