<?xml version="1.0" encoding="UTF-8" standalone="no"?>
<svg
   xmlns:dc="http://purl.org/dc/elements/1.1/"
   xmlns:cc="http://creativecommons.org/ns#"
   xmlns:rdf="http://www.w3.org/1999/02/22-rdf-syntax-ns#"
   xmlns:svg="http://www.w3.org/2000/svg"
   xmlns="http://www.w3.org/2000/svg"
   xmlns:sodipodi="http://sodipodi.sourceforge.net/DTD/sodipodi-0.dtd"
   xmlns:inkscape="http://www.inkscape.org/namespaces/inkscape"
   height="24px"
   viewBox="0 0 24 24"
   width="24px"
   fill="#FFFFFF"
   version="1.1"
   id="svg859"
   sodipodi:docname="dangerous.svg"
   inkscape:version="0.92.3 (2405546, 2018-03-11)">
  <metadata
     id="metadata865">
    <rdf:RDF>
      <cc:Work
         rdf:about="">
        <dc:format>image/svg+xml</dc:format>
        <dc:type
           rdf:resource="http://purl.org/dc/dcmitype/StillImage" />
      </cc:Work>
    </rdf:RDF>
  </metadata>
  <defs
     id="defs863" />
  <sodipodi:namedview
     pagecolor="#ffffff"
     bordercolor="#666666"
     borderopacity="1"
     objecttolerance="10"
     gridtolerance="10"
     guidetolerance="10"
     inkscape:pageopacity="0"
     inkscape:pageshadow="2"
     inkscape:window-width="3840"
     inkscape:window-height="2004"
     id="namedview861"
     showgrid="false"
     inkscape:zoom="55.625733"
     inkscape:cx="9.7287132"
     inkscape:cy="10.118795"
     inkscape:window-x="-16"
     inkscape:window-y="-16"
     inkscape:window-maximized="1"
     inkscape:current-layer="svg859" />
  <path
     d="M0 0h24v24H0z"
     fill="none"
     id="path855" />
  <path
     id="path1411"
     d="M 8.2597656,7 12,10.740234 15.740234,7 17,8.2597656 13.259766,12 17,15.740234 15.740234,17 12,13.259766 8.2597656,17 7,15.740234 10.740234,12 7,8.2597656 Z"
     style="fill:#ffdfb4;fill-opacity:1;stroke:none;stroke-width:0.40000001;stroke-miterlimit:4;stroke-dasharray:none;stroke-opacity:1"
     inkscape:connector-curvature="0"
     sodipodi:nodetypes="ccccccccccccc" />
  <path
     style="fill:#f0a028;fill-opacity:1;stroke:#94533d;stroke-opacity:1;stroke-width:0.35;stroke-miterlimit:4;stroke-dasharray:none"
     d="M 8.2695312 3 L 3 8.2695312 L 3 15.730469 L 8.2695312 21 L 15.730469 21 L 21 15.730469 L 21 8.2695312 L 15.730469 3 L 8.2695312 3 z M 8.2597656 7 L 12 10.740234 L 15.740234 7 L 17 8.2597656 L 13.259766 12 L 17 15.740234 L 15.740234 17 L 12 13.259766 L 8.2597656 17 L 7 15.740234 L 10.740234 12 L 7 8.2597656 L 8.2597656 7 z "
     id="path857" />
</svg>
