<?xml version="1.0" encoding="UTF-8" standalone="no"?>
<svg
   xmlns:dc="http://purl.org/dc/elements/1.1/"
   xmlns:cc="http://creativecommons.org/ns#"
   xmlns:rdf="http://www.w3.org/1999/02/22-rdf-syntax-ns#"
   xmlns:svg="http://www.w3.org/2000/svg"
   xmlns="http://www.w3.org/2000/svg"
   xmlns:sodipodi="http://sodipodi.sourceforge.net/DTD/sodipodi-0.dtd"
   xmlns:inkscape="http://www.inkscape.org/namespaces/inkscape"
   enable-background="new 0 0 24 24"
   height="24px"
   viewBox="0 0 24 24"
   width="24px"
   fill="currentColor"
   version="1.1"
   id="svg903"
   sodipodi:docname="verlauf_on.svg"
   inkscape:version="0.92.3 (2405546, 2018-03-11)">
  <metadata
     id="metadata909">
    <rdf:RDF>
      <cc:Work
         rdf:about="">
        <dc:format>image/svg+xml</dc:format>
        <dc:type
           rdf:resource="http://purl.org/dc/dcmitype/StillImage" />
        <dc:title></dc:title>
      </cc:Work>
    </rdf:RDF>
  </metadata>
  <defs
     id="defs907" />
  <sodipodi:namedview
     pagecolor="#ffffff"
     bordercolor="#666666"
     borderopacity="1"
     objecttolerance="10"
     gridtolerance="10"
     guidetolerance="10"
     inkscape:pageopacity="0"
     inkscape:pageshadow="2"
     inkscape:window-width="3840"
     inkscape:window-height="2004"
     id="namedview905"
     showgrid="false"
     inkscape:zoom="45.254834"
     inkscape:cx="11.25389"
     inkscape:cy="10.866322"
     inkscape:window-x="-16"
     inkscape:window-y="-16"
     inkscape:window-maximized="1"
     inkscape:current-layer="g901" />
  <g
     id="g885">
    <rect
       fill="none"
       height="24"
       width="24"
       id="rect883" />
  </g>
  <g
     id="g901">
    <path
       d="m 18,4 h -2 v 7.9 l 2,0.01084 z"
       id="polygon887"
       inkscape:connector-curvature="0"
       sodipodi:nodetypes="ccccc" />
    <rect
       id="rect889"
       y="4"
       x="4"
       width="2"
       height="16" />
    <rect
       id="rect891"
       y="4"
       x="10"
       width="2"
       height="4" />
    <path
       d="m 10,10 h 2 v 2.475301 L 10,14 Z"
       id="rect893"
       inkscape:connector-curvature="0"
       sodipodi:nodetypes="ccccc" />
    <g
       style="fill:currentColor"
       id="g943"
       transform="matrix(0.62850328,0,0,0.62850328,8.5398643,9.8808959)">
      <path
         id="path929"
         d="M 0,0 H 24 V 24 H 0 Z"
         inkscape:connector-curvature="0"
         style="fill:none" />
      <path
         id="path931"
         d="M 12,4.5 C 7,4.5 2.73,7.61 1,12 c 1.73,4.39 6,7.5 11,7.5 5,0 9.27,-3.11 11,-7.5 C 21.27,7.61 17,4.5 12,4.5 Z M 12,17 C 9.24,17 7,14.76 7,12 7,9.24 9.24,7 12,7 c 2.76,0 5,2.24 5,5 0,2.76 -2.24,5 -5,5 z m 0,-8 c -1.66,0 -3,1.34 -3,3 0,1.66 1.34,3 3,3 1.66,0 3,-1.34 3,-3 0,-1.66 -1.34,-3 -3,-3 z"
         inkscape:connector-curvature="0" />
    </g>
  </g>
</svg>
